<svg xmlns="http://www.w3.org/2000/svg" xmlns:xlink="http://www.w3.org/1999/xlink" width="2000" zoomAndPan="magnify" viewBox="0 0 1500 1499.999933" height="2000" preserveAspectRatio="xMidYMid meet" version="1.0"><defs><g/></defs><g fill="#0d9488" fill-opacity="1"><g transform="translate(310.089851, 820.874909)"><g><path d="M 82.984375 -141.453125 C 85.898438 -141.453125 88.363281 -140.75 90.375 -139.34375 C 92.394531 -137.945312 93.40625 -136.242188 93.40625 -134.234375 C 93.40625 -130.648438 92.285156 -127.765625 90.046875 -125.578125 C 87.804688 -123.390625 84.613281 -122.296875 80.46875 -122.296875 C 73.976562 -122.296875 69.050781 -122.242188 65.6875 -122.140625 C 65.46875 -120.796875 64.457031 -114.742188 62.65625 -103.984375 C 60.644531 -92.003906 59.414062 -84.671875 58.96875 -81.984375 L 55.4375 -59.96875 C 52.976562 -43.507812 51.019531 -29.734375 49.5625 -18.640625 C 51.914062 -18.753906 55.109375 -18.8125 59.140625 -18.8125 C 65.078125 -18.8125 69.109375 -18.023438 71.234375 -16.453125 C 73.359375 -14.890625 74.421875 -12.539062 74.421875 -9.40625 C 74.421875 -6.5 73.269531 -4.035156 70.96875 -2.015625 C 68.675781 0.00390625 65.457031 1.015625 61.3125 1.015625 C 58.519531 1.015625 54.097656 0.898438 48.046875 0.671875 C 42.441406 0.453125 38.742188 0.34375 36.953125 0.34375 C 29.898438 0.34375 22.175781 0.957031 13.78125 2.1875 C 10.082031 2.75 7.445312 3.03125 5.875 3.03125 C 3.414062 3.03125 1.347656 2.351562 -0.328125 1 C -2.015625 -0.34375 -2.859375 -2.300781 -2.859375 -4.875 C -2.859375 -8.90625 -1.066406 -12.039062 2.515625 -14.28125 C 6.097656 -16.519531 11.140625 -17.695312 17.640625 -17.8125 L 25.53125 -17.96875 L 26.046875 -21.671875 C 28.734375 -39.585938 30.691406 -52.242188 31.921875 -59.640625 L 35.609375 -81.640625 C 37.847656 -94.640625 39.863281 -108.023438 41.65625 -121.796875 L 27.546875 -121.625 C 23.515625 -121.625 20.742188 -122.269531 19.234375 -123.5625 C 17.722656 -124.851562 16.96875 -126.675781 16.96875 -129.03125 C 16.96875 -136.644531 22.457031 -140.726562 33.4375 -141.28125 C 38.582031 -141.507812 44.851562 -141.625 52.25 -141.625 Z M 82.984375 -141.453125 "/></g></g></g><g fill="#0d9488" fill-opacity="1"><g transform="translate(393.249837, 820.874909)"><g><path d="M 19.984375 0.84375 C 15.734375 0.84375 12.738281 -1.394531 11 -5.875 C 9.269531 -10.351562 8.40625 -17.523438 8.40625 -27.390625 C 8.40625 -41.941406 10.472656 -55.769531 14.609375 -68.875 C 15.617188 -72.125 17.269531 -74.503906 19.5625 -76.015625 C 21.863281 -77.523438 25.085938 -78.28125 29.234375 -78.28125 C 31.472656 -78.28125 33.039062 -78 33.9375 -77.4375 C 34.832031 -76.882812 35.28125 -75.820312 35.28125 -74.25 C 35.28125 -72.457031 34.441406 -68.425781 32.765625 -62.15625 C 31.640625 -57.675781 30.738281 -53.753906 30.0625 -50.390625 C 29.394531 -47.035156 28.835938 -42.894531 28.390625 -37.96875 C 32.085938 -47.601562 36.234375 -55.441406 40.828125 -61.484375 C 45.421875 -67.535156 49.925781 -71.847656 54.34375 -74.421875 C 58.769531 -76.992188 62.832031 -78.28125 66.53125 -78.28125 C 73.8125 -78.28125 77.453125 -74.644531 77.453125 -67.375 C 77.453125 -63 76.21875 -55.101562 73.75 -43.6875 C 71.625 -33.9375 70.5625 -27.492188 70.5625 -24.359375 C 70.5625 -19.878906 72.1875 -17.640625 75.4375 -17.640625 C 77.675781 -17.640625 80.332031 -19.007812 83.40625 -21.75 C 86.488281 -24.5 90.609375 -28.953125 95.765625 -35.109375 C 97.109375 -36.679688 98.617188 -37.46875 100.296875 -37.46875 C 101.753906 -37.46875 102.898438 -36.796875 103.734375 -35.453125 C 104.578125 -34.109375 105 -32.257812 105 -29.90625 C 105 -25.425781 103.9375 -21.953125 101.8125 -19.484375 C 96.988281 -13.546875 91.804688 -8.671875 86.265625 -4.859375 C 80.722656 -1.054688 74.425781 0.84375 67.375 0.84375 C 61.65625 0.84375 57.335938 -0.804688 54.421875 -4.109375 C 51.515625 -7.421875 50.0625 -12.210938 50.0625 -18.484375 C 50.0625 -21.617188 50.847656 -27.21875 52.421875 -35.28125 C 53.867188 -42.332031 54.59375 -47.203125 54.59375 -49.890625 C 54.59375 -51.679688 53.976562 -52.578125 52.75 -52.578125 C 51.289062 -52.578125 49.242188 -50.703125 46.609375 -46.953125 C 43.984375 -43.203125 41.296875 -38.242188 38.546875 -32.078125 C 35.804688 -25.921875 33.597656 -19.425781 31.921875 -12.59375 C 30.691406 -7.332031 29.265625 -3.773438 27.640625 -1.921875 C 26.015625 -0.078125 23.460938 0.84375 19.984375 0.84375 Z M 19.984375 0.84375 "/></g></g></g><g fill="#0d9488" fill-opacity="1"><g transform="translate(476.577821, 820.874909)"><g><path d="M 39.3125 4.53125 C 33.488281 4.53125 29.035156 3.1875 25.953125 0.5 C 22.878906 -2.1875 21.34375 -5.207031 21.34375 -8.5625 C 21.34375 -11.476562 22.40625 -14 24.53125 -16.125 C 26.65625 -18.25 29.789062 -19.3125 33.9375 -19.3125 C 35.394531 -19.3125 37.101562 -19.171875 39.0625 -18.890625 C 41.019531 -18.617188 42.503906 -18.425781 43.515625 -18.3125 C 43.398438 -21.226562 42.753906 -23.972656 41.578125 -26.546875 C 40.398438 -29.117188 38.914062 -31.609375 37.125 -34.015625 C 35.332031 -36.421875 33.65625 -38.519531 32.09375 -40.3125 C 28.613281 -33.707031 25.164062 -28.21875 21.75 -23.84375 C 18.332031 -19.476562 14.609375 -15.335938 10.578125 -11.421875 C 8.566406 -9.410156 6.441406 -8.40625 4.203125 -8.40625 C 2.410156 -8.40625 0.957031 -9.046875 -0.15625 -10.328125 C -1.28125 -11.617188 -1.84375 -13.21875 -1.84375 -15.125 C -1.84375 -17.363281 -1.0625 -19.4375 0.5 -21.34375 L 2.6875 -24.03125 C 8.84375 -31.644531 13.488281 -37.914062 16.625 -42.84375 C 18.53125 -46.09375 20.769531 -50.429688 23.34375 -55.859375 C 25.925781 -61.296875 28.445312 -66.925781 30.90625 -72.75 C 33.039062 -77.675781 37.46875 -80.140625 44.1875 -80.140625 C 47.320312 -80.140625 49.503906 -79.859375 50.734375 -79.296875 C 51.960938 -78.734375 52.578125 -77.835938 52.578125 -76.609375 C 52.578125 -75.929688 52.351562 -74.863281 51.90625 -73.40625 C 51.457031 -71.957031 50.84375 -70.503906 50.0625 -69.046875 C 48.050781 -65.015625 47.046875 -61.597656 47.046875 -58.796875 C 47.046875 -57.117188 47.628906 -55.269531 48.796875 -53.25 C 49.972656 -51.238281 51.796875 -48.722656 54.265625 -45.703125 C 57.847656 -40.992188 60.5625 -36.988281 62.40625 -33.6875 C 64.257812 -30.382812 65.1875 -26.769531 65.1875 -22.84375 C 65.1875 -21.726562 65.070312 -20.160156 64.84375 -18.140625 C 70.332031 -20.273438 76.773438 -25.929688 84.171875 -35.109375 C 85.515625 -36.679688 87.023438 -37.46875 88.703125 -37.46875 C 90.160156 -37.46875 91.304688 -36.796875 92.140625 -35.453125 C 92.984375 -34.109375 93.40625 -32.257812 93.40625 -29.90625 C 93.40625 -25.644531 92.34375 -22.171875 90.21875 -19.484375 C 84.613281 -12.546875 79.265625 -7.816406 74.171875 -5.296875 C 69.078125 -2.773438 62.773438 -1.398438 55.265625 -1.171875 C 50.785156 2.628906 45.46875 4.53125 39.3125 4.53125 Z M 39.3125 4.53125 "/></g></g></g><g fill="#0d9488" fill-opacity="1"><g transform="translate(548.3138, 820.874909)"><g><path d="M 30.078125 -89.375 C 25.367188 -89.375 21.835938 -90.460938 19.484375 -92.640625 C 17.128906 -94.828125 15.953125 -97.882812 15.953125 -101.8125 C 15.953125 -105.726562 17.492188 -109 20.578125 -111.625 C 23.660156 -114.257812 27.5 -115.578125 32.09375 -115.578125 C 36.226562 -115.578125 39.582031 -114.566406 42.15625 -112.546875 C 44.738281 -110.535156 46.03125 -107.679688 46.03125 -103.984375 C 46.03125 -99.503906 44.570312 -95.945312 41.65625 -93.3125 C 38.75 -90.6875 34.890625 -89.375 30.078125 -89.375 Z M 28.734375 0.84375 C 21.453125 0.84375 16.15625 -1.726562 12.84375 -6.875 C 9.539062 -12.03125 7.890625 -18.867188 7.890625 -27.390625 C 7.890625 -32.421875 8.535156 -38.882812 9.828125 -46.78125 C 11.117188 -54.675781 12.769531 -62.039062 14.78125 -68.875 C 15.789062 -72.457031 17.132812 -74.921875 18.8125 -76.265625 C 20.5 -77.609375 23.1875 -78.28125 26.875 -78.28125 C 32.59375 -78.28125 35.453125 -76.378906 35.453125 -72.578125 C 35.453125 -69.773438 34.382812 -63.28125 32.25 -53.09375 C 29.5625 -40.769531 28.21875 -32.425781 28.21875 -28.0625 C 28.21875 -24.695312 28.664062 -22.117188 29.5625 -20.328125 C 30.457031 -18.535156 31.972656 -17.640625 34.109375 -17.640625 C 36.117188 -17.640625 38.632812 -19.039062 41.65625 -21.84375 C 44.6875 -24.644531 48.722656 -29.066406 53.765625 -35.109375 C 55.109375 -36.679688 56.617188 -37.46875 58.296875 -37.46875 C 59.753906 -37.46875 60.898438 -36.796875 61.734375 -35.453125 C 62.578125 -34.109375 63 -32.257812 63 -29.90625 C 63 -25.425781 61.9375 -21.953125 59.8125 -19.484375 C 48.71875 -5.929688 38.359375 0.84375 28.734375 0.84375 Z M 28.734375 0.84375 "/></g></g></g><g fill="#0d9488" fill-opacity="1"><g transform="translate(589.6418, 820.874909)"><g><path d="M 94.078125 -37.125 C 95.535156 -37.125 96.679688 -36.421875 97.515625 -35.015625 C 98.359375 -33.617188 98.78125 -31.859375 98.78125 -29.734375 C 98.78125 -27.160156 98.390625 -25.144531 97.609375 -23.6875 C 96.828125 -22.226562 95.59375 -20.941406 93.90625 -19.828125 C 84.28125 -13.328125 77.226562 -8.507812 72.75 -5.375 L 61.984375 1.84375 C 57.734375 25.03125 52.160156 43.257812 45.265625 56.53125 C 38.378906 69.800781 29.617188 76.4375 18.984375 76.4375 C 13.273438 76.4375 8.625 74.671875 5.03125 71.140625 C 1.445312 67.617188 -0.34375 63 -0.34375 57.28125 C -0.34375 49.332031 2.789062 40.789062 9.0625 31.65625 C 15.34375 22.53125 27.109375 11.304688 44.359375 -2.015625 L 45.359375 -8.5625 C 43.453125 -5.539062 40.957031 -3.21875 37.875 -1.59375 C 34.800781 0.03125 31.753906 0.84375 28.734375 0.84375 C 21.785156 0.84375 16.238281 -1.675781 12.09375 -6.71875 C 7.945312 -11.757812 5.875 -18.367188 5.875 -26.546875 C 5.875 -35.503906 7.945312 -43.988281 12.09375 -52 C 16.238281 -60.007812 21.753906 -66.445312 28.640625 -71.3125 C 35.523438 -76.1875 42.832031 -78.625 50.5625 -78.625 C 53.03125 -78.625 54.679688 -78.144531 55.515625 -77.1875 C 56.359375 -76.238281 57.0625 -74.535156 57.625 -72.078125 C 59.75 -72.523438 62.210938 -72.75 65.015625 -72.75 C 67.816406 -72.75 69.804688 -72.328125 70.984375 -71.484375 C 72.160156 -70.640625 72.75 -68.988281 72.75 -66.53125 C 72.75 -65.1875 72.691406 -64.125 72.578125 -63.34375 C 72.128906 -59.863281 70.726562 -51.066406 68.375 -36.953125 C 67.925781 -34.265625 67.445312 -31.328125 66.9375 -28.140625 C 66.4375 -24.953125 65.910156 -21.5625 65.359375 -17.96875 C 73.972656 -24.695312 82.257812 -30.632812 90.21875 -35.78125 C 91.675781 -36.675781 92.960938 -37.125 94.078125 -37.125 Z M 34.78125 -16.125 C 37.351562 -16.125 39.816406 -17.691406 42.171875 -20.828125 C 44.523438 -23.960938 46.203125 -28.441406 47.203125 -34.265625 L 52.578125 -63 C 47.992188 -62.882812 43.738281 -61.117188 39.8125 -57.703125 C 35.894531 -54.285156 32.757812 -49.773438 30.40625 -44.171875 C 28.050781 -38.578125 26.875 -32.644531 26.875 -26.375 C 26.875 -22.90625 27.570312 -20.328125 28.96875 -18.640625 C 30.375 -16.960938 32.3125 -16.125 34.78125 -16.125 Z M 20.828125 60.140625 C 23.628906 60.140625 26.789062 56.78125 30.3125 50.0625 C 33.84375 43.34375 37.234375 32.644531 40.484375 17.96875 C 31.859375 25.363281 25.640625 32.03125 21.828125 37.96875 C 18.023438 43.90625 16.125 49.113281 16.125 53.59375 C 16.125 55.5 16.488281 57.066406 17.21875 58.296875 C 17.945312 59.523438 19.148438 60.140625 20.828125 60.140625 Z M 20.828125 60.140625 "/></g></g></g><g fill="#0d9488" fill-opacity="1"><g transform="translate(670.113785, 820.874909)"><g><path d="M 101.296875 -37.46875 C 102.753906 -37.46875 103.90625 -36.796875 104.75 -35.453125 C 105.59375 -34.109375 106.015625 -32.257812 106.015625 -29.90625 C 106.015625 -25.425781 104.945312 -21.953125 102.8125 -19.484375 C 97.664062 -13.546875 92.375 -8.671875 86.9375 -4.859375 C 81.507812 -1.054688 75.320312 0.84375 68.375 0.84375 C 62.664062 0.84375 58.351562 -0.804688 55.4375 -4.109375 C 52.53125 -7.421875 51.078125 -12.210938 51.078125 -18.484375 C 51.078125 -21.617188 51.859375 -27.21875 53.421875 -35.28125 C 54.878906 -42.332031 55.609375 -47.203125 55.609375 -49.890625 C 55.609375 -51.679688 54.992188 -52.578125 53.765625 -52.578125 C 52.304688 -52.578125 50.234375 -50.703125 47.546875 -46.953125 C 44.859375 -43.203125 42.171875 -38.242188 39.484375 -32.078125 C 36.796875 -25.921875 34.609375 -19.425781 32.921875 -12.59375 C 30.796875 -3.632812 25.535156 0.84375 17.140625 0.84375 C 13.773438 0.84375 11.5625 -0.359375 10.5 -2.765625 C 9.4375 -5.179688 8.90625 -9.523438 8.90625 -15.796875 C 8.90625 -19.378906 8.960938 -22.234375 9.078125 -24.359375 L 9.234375 -37.796875 C 9.234375 -55.046875 11 -73.019531 14.53125 -91.71875 C 18.0625 -110.425781 23.269531 -126.132812 30.15625 -138.84375 C 37.039062 -151.5625 45.300781 -157.921875 54.9375 -157.921875 C 60.082031 -157.921875 64.25 -155.707031 67.4375 -151.28125 C 70.632812 -146.851562 72.234375 -141.113281 72.234375 -134.0625 C 72.234375 -122.75 68.929688 -111.015625 62.328125 -98.859375 C 55.722656 -86.710938 44.972656 -72.519531 30.078125 -56.28125 C 29.734375 -50.457031 29.5625 -44.460938 29.5625 -38.296875 C 33.257812 -47.816406 37.375 -55.570312 41.90625 -61.5625 C 46.445312 -67.5625 50.925781 -71.847656 55.34375 -74.421875 C 59.769531 -76.992188 63.832031 -78.28125 67.53125 -78.28125 C 74.8125 -78.28125 78.453125 -74.644531 78.453125 -67.375 C 78.453125 -63 77.222656 -55.101562 74.765625 -43.6875 C 72.628906 -33.9375 71.5625 -27.492188 71.5625 -24.359375 C 71.5625 -19.878906 73.1875 -17.640625 76.4375 -17.640625 C 78.675781 -17.640625 81.335938 -19.007812 84.421875 -21.75 C 87.503906 -24.5 91.617188 -28.953125 96.765625 -35.109375 C 98.109375 -36.679688 99.617188 -37.46875 101.296875 -37.46875 Z M 51.40625 -141.28125 C 49.394531 -141.28125 47.15625 -138.394531 44.6875 -132.625 C 42.21875 -126.863281 39.835938 -119.082031 37.546875 -109.28125 C 35.253906 -99.476562 33.378906 -88.8125 31.921875 -77.28125 C 38.867188 -85.457031 44.609375 -94.359375 49.140625 -103.984375 C 53.671875 -113.617188 55.9375 -122.359375 55.9375 -130.203125 C 55.9375 -133.785156 55.546875 -136.523438 54.765625 -138.421875 C 53.984375 -140.328125 52.863281 -141.28125 51.40625 -141.28125 Z M 51.40625 -141.28125 "/></g></g></g><g fill="#0d9488" fill-opacity="1"><g transform="translate(754.449754, 820.874909)"><g><path d="M 82.984375 -37.46875 C 84.441406 -37.46875 85.59375 -36.796875 86.4375 -35.453125 C 87.28125 -34.109375 87.703125 -32.257812 87.703125 -29.90625 C 87.703125 -25.425781 86.632812 -21.953125 84.5 -19.484375 C 79.6875 -13.546875 74.421875 -8.671875 68.703125 -4.859375 C 62.992188 -1.054688 56.445312 0.84375 49.0625 0.84375 C 26.207031 0.84375 14.78125 -15.226562 14.78125 -47.375 C 14.78125 -52.300781 14.945312 -57.285156 15.28125 -62.328125 L 8.734375 -62.328125 C 5.378906 -62.328125 3.113281 -62.941406 1.9375 -64.171875 C 0.757812 -65.410156 0.171875 -67.375 0.171875 -70.0625 C 0.171875 -76.332031 2.691406 -79.46875 7.734375 -79.46875 L 17.296875 -79.46875 C 19.203125 -91.78125 22.113281 -103.03125 26.03125 -113.21875 C 29.957031 -123.414062 34.691406 -131.535156 40.234375 -137.578125 C 45.773438 -143.628906 51.738281 -146.65625 58.125 -146.65625 C 62.832031 -146.65625 66.53125 -144.582031 69.21875 -140.4375 C 71.90625 -136.300781 73.25 -131.097656 73.25 -124.828125 C 73.25 -107.460938 65.96875 -92.34375 51.40625 -79.46875 L 70.21875 -79.46875 C 72.007812 -79.46875 73.296875 -79.070312 74.078125 -78.28125 C 74.867188 -77.5 75.265625 -76.046875 75.265625 -73.921875 C 75.265625 -66.191406 68.9375 -62.328125 56.28125 -62.328125 L 35.78125 -62.328125 C 35.5625 -56.722656 35.453125 -52.351562 35.453125 -49.21875 C 35.453125 -37.570312 36.820312 -29.394531 39.5625 -24.6875 C 42.3125 -19.988281 46.648438 -17.640625 52.578125 -17.640625 C 57.398438 -17.640625 61.65625 -19.09375 65.34375 -22 C 69.039062 -24.914062 73.410156 -29.285156 78.453125 -35.109375 C 79.796875 -36.679688 81.304688 -37.46875 82.984375 -37.46875 Z M 53.59375 -130.53125 C 51.914062 -130.53125 50.039062 -128.429688 47.96875 -124.234375 C 45.894531 -120.035156 43.929688 -114.210938 42.078125 -106.765625 C 40.234375 -99.316406 38.695312 -91.054688 37.46875 -81.984375 C 44.070312 -87.691406 49.023438 -94.101562 52.328125 -101.21875 C 55.628906 -108.332031 57.28125 -114.800781 57.28125 -120.625 C 57.28125 -127.226562 56.050781 -130.53125 53.59375 -130.53125 Z M 53.59375 -130.53125 "/></g></g></g><g fill="#0d9488" fill-opacity="1"><g transform="translate(820.47378, 820.874909)"><g><path d="M 149.015625 -139.265625 C 152.148438 -138.816406 154.304688 -137.863281 155.484375 -136.40625 C 156.660156 -134.957031 157.25 -133.054688 157.25 -130.703125 C 157.25 -122.972656 153.101562 -119.390625 144.8125 -119.953125 L 138.9375 -120.453125 C 132.332031 -121.015625 125.753906 -121.460938 119.203125 -121.796875 C 112.648438 -122.128906 105.785156 -122.296875 98.609375 -122.296875 L 91.0625 -122.296875 C 89.71875 -105.722656 88.316406 -90.601562 86.859375 -76.9375 L 115.75 -77.453125 C 119.894531 -77.453125 122.664062 -76.722656 124.0625 -75.265625 C 125.46875 -73.804688 126.171875 -71.847656 126.171875 -69.390625 C 126.171875 -65.578125 125.050781 -62.578125 122.8125 -60.390625 C 120.570312 -58.210938 117.378906 -57.125 113.234375 -57.125 L 84.5 -57.125 L 83.5 -49.890625 C 81.144531 -31.410156 76.128906 -18.25 68.453125 -10.40625 C 60.785156 -2.570312 50.234375 1.34375 36.796875 1.34375 C 29.179688 1.34375 22.179688 -0.304688 15.796875 -3.609375 C 9.410156 -6.910156 4.707031 -10.914062 1.6875 -15.625 C 0.445312 -17.53125 -0.171875 -19.828125 -0.171875 -22.515625 C -0.171875 -25.203125 0.472656 -27.550781 1.765625 -29.5625 C 3.054688 -31.582031 4.648438 -32.59375 6.546875 -32.59375 C 7.890625 -32.59375 9.207031 -32.144531 10.5 -31.25 C 11.789062 -30.351562 13.441406 -28.617188 15.453125 -26.046875 C 20.828125 -18.984375 27.492188 -15.453125 35.453125 -15.453125 C 41.835938 -15.453125 47.179688 -18.054688 51.484375 -23.265625 C 55.796875 -28.472656 58.570312 -36.675781 59.8125 -47.875 L 60.8125 -57.125 L 52.75 -57.125 C 50.175781 -57.125 47.960938 -57.847656 46.109375 -59.296875 C 44.265625 -60.753906 43.34375 -62.828125 43.34375 -65.515625 C 43.34375 -68.992188 44.238281 -71.65625 46.03125 -73.5 C 47.820312 -75.34375 50.453125 -76.265625 53.921875 -76.265625 C 57.054688 -76.265625 60.140625 -76.320312 63.171875 -76.4375 C 64.515625 -88.757812 65.96875 -103.710938 67.53125 -121.296875 C 55.4375 -120.171875 46.925781 -118.207031 42 -115.40625 C 37.070312 -112.613281 34.609375 -108.472656 34.609375 -102.984375 C 34.609375 -99.171875 35.726562 -95.53125 37.96875 -92.0625 C 38.632812 -91.050781 38.96875 -90.046875 38.96875 -89.046875 C 38.96875 -87.023438 37.847656 -85.257812 35.609375 -83.75 C 33.367188 -82.238281 30.851562 -81.484375 28.0625 -81.484375 C 25.03125 -81.484375 22.453125 -82.378906 20.328125 -84.171875 C 18.984375 -85.285156 17.691406 -87.578125 16.453125 -91.046875 C 15.222656 -94.523438 14.609375 -98.390625 14.609375 -102.640625 C 14.609375 -116.535156 21.75 -126.617188 36.03125 -132.890625 C 50.3125 -139.160156 71.171875 -142.296875 98.609375 -142.296875 C 117.648438 -142.296875 134.453125 -141.285156 149.015625 -139.265625 Z M 149.015625 -139.265625 "/></g></g></g><g fill="#0d9488" fill-opacity="1"><g transform="translate(940.089752, 820.874909)"><g><path d="M 71.734375 -37.46875 C 73.191406 -37.46875 74.335938 -36.796875 75.171875 -35.453125 C 76.015625 -34.109375 76.4375 -32.257812 76.4375 -29.90625 C 76.4375 -25.425781 75.375 -21.953125 73.25 -19.484375 C 68.4375 -13.546875 63.203125 -8.671875 57.546875 -4.859375 C 51.890625 -1.054688 45.472656 0.84375 38.296875 0.84375 C 28.441406 0.84375 21.132812 -3.632812 16.375 -12.59375 C 11.613281 -21.5625 9.234375 -33.15625 9.234375 -47.375 C 9.234375 -61.039062 11 -76.609375 14.53125 -94.078125 C 18.0625 -111.546875 23.269531 -126.550781 30.15625 -139.09375 C 37.039062 -151.644531 45.242188 -157.921875 54.765625 -157.921875 C 60.140625 -157.921875 64.367188 -155.425781 67.453125 -150.4375 C 70.535156 -145.457031 72.078125 -138.320312 72.078125 -129.03125 C 72.078125 -115.695312 68.378906 -100.238281 60.984375 -82.65625 C 53.585938 -65.070312 43.5625 -47.65625 30.90625 -30.40625 C 31.695312 -25.8125 32.988281 -22.535156 34.78125 -20.578125 C 36.570312 -18.617188 38.921875 -17.640625 41.828125 -17.640625 C 46.421875 -17.640625 50.453125 -18.953125 53.921875 -21.578125 C 57.398438 -24.210938 61.828125 -28.722656 67.203125 -35.109375 C 68.546875 -36.679688 70.054688 -37.46875 71.734375 -37.46875 Z M 51.078125 -141.28125 C 48.492188 -141.28125 45.578125 -136.632812 42.328125 -127.34375 C 39.085938 -118.050781 36.234375 -106.515625 33.765625 -92.734375 C 31.304688 -78.960938 29.960938 -65.75 29.734375 -53.09375 C 37.679688 -66.195312 44.007812 -79.328125 48.71875 -92.484375 C 53.425781 -105.640625 55.78125 -117.648438 55.78125 -128.515625 C 55.78125 -137.023438 54.210938 -141.28125 51.078125 -141.28125 Z M 51.078125 -141.28125 "/></g></g></g><g fill="#0d9488" fill-opacity="1"><g transform="translate(994.857738, 820.874909)"><g><path d="M 93.75 -51.578125 C 95.195312 -51.578125 96.3125 -50.847656 97.09375 -49.390625 C 97.882812 -47.929688 98.28125 -46.082031 98.28125 -43.84375 C 98.28125 -38.46875 96.65625 -35.273438 93.40625 -34.265625 C 86.6875 -31.921875 79.296875 -30.578125 71.234375 -30.234375 C 69.109375 -20.828125 64.90625 -13.296875 58.625 -7.640625 C 52.351562 -1.984375 45.242188 0.84375 37.296875 0.84375 C 30.578125 0.84375 24.835938 -0.78125 20.078125 -4.03125 C 15.316406 -7.28125 11.703125 -11.59375 9.234375 -16.96875 C 6.773438 -22.34375 5.546875 -28.164062 5.546875 -34.4375 C 5.546875 -42.945312 7.164062 -50.535156 10.40625 -57.203125 C 13.65625 -63.867188 18.132812 -69.078125 23.84375 -72.828125 C 29.5625 -76.578125 35.894531 -78.453125 42.84375 -78.453125 C 51.351562 -78.453125 58.210938 -75.507812 63.421875 -69.625 C 68.628906 -63.75 71.679688 -56.5 72.578125 -47.875 C 77.835938 -48.21875 84.109375 -49.335938 91.390625 -51.234375 C 92.285156 -51.460938 93.070312 -51.578125 93.75 -51.578125 Z M 38.640625 -16.96875 C 42.222656 -16.96875 45.328125 -18.421875 47.953125 -21.328125 C 50.585938 -24.242188 52.351562 -28.445312 53.25 -33.9375 C 49.78125 -36.289062 47.117188 -39.367188 45.265625 -43.171875 C 43.421875 -46.984375 42.5 -51.015625 42.5 -55.265625 C 42.5 -57.054688 42.671875 -58.847656 43.015625 -60.640625 L 42.171875 -60.640625 C 37.691406 -60.640625 33.96875 -58.484375 31 -54.171875 C 28.03125 -49.867188 26.546875 -43.796875 26.546875 -35.953125 C 26.546875 -29.796875 27.75 -25.09375 30.15625 -21.84375 C 32.5625 -18.59375 35.390625 -16.96875 38.640625 -16.96875 Z M 38.640625 -16.96875 "/></g></g></g><g fill="#0d9488" fill-opacity="1"><g transform="translate(1072.305714, 820.874909)"><g><path d="M 133.390625 -51.078125 C 133.722656 -51.179688 134.285156 -51.234375 135.078125 -51.234375 C 136.753906 -51.234375 138.039062 -50.671875 138.9375 -49.546875 C 139.832031 -48.429688 140.28125 -46.925781 140.28125 -45.03125 C 140.28125 -41.550781 139.609375 -38.832031 138.265625 -36.875 C 136.921875 -34.914062 134.90625 -33.488281 132.21875 -32.59375 C 127.0625 -30.914062 121.570312 -30.078125 115.75 -30.078125 C 110.820312 -30.078125 106.175781 -30.75 101.8125 -32.09375 C 98.5625 -26.820312 94.976562 -21.390625 91.0625 -15.796875 C 86.582031 -9.410156 82.742188 -5.039062 79.546875 -2.6875 C 76.359375 -0.332031 72.75 0.84375 68.71875 0.84375 C 64.226562 0.84375 60.835938 -0.890625 58.546875 -4.359375 C 56.253906 -7.835938 54.828125 -13.550781 54.265625 -21.5 L 53.421875 -33.765625 C 49.953125 -24.359375 46.84375 -17.191406 44.09375 -12.265625 C 41.351562 -7.335938 38.609375 -3.921875 35.859375 -2.015625 C 33.117188 -0.109375 29.898438 0.84375 26.203125 0.84375 C 21.609375 0.84375 17.992188 -0.945312 15.359375 -4.53125 C 12.734375 -8.113281 11.085938 -13.769531 10.421875 -21.5 C 9.078125 -37.1875 8.40625 -50.90625 8.40625 -62.65625 L 8.40625 -68.546875 C 8.507812 -72.242188 9.515625 -74.816406 11.421875 -76.265625 C 13.328125 -77.722656 16.179688 -78.453125 19.984375 -78.453125 C 22.898438 -78.453125 25.054688 -77.804688 26.453125 -76.515625 C 27.859375 -75.234375 28.5625 -73.082031 28.5625 -70.0625 C 28.5625 -57.175781 29.34375 -40.429688 30.90625 -19.828125 C 38.53125 -35.835938 45.53125 -52.523438 51.90625 -69.890625 C 53.144531 -73.242188 54.628906 -75.507812 56.359375 -76.6875 C 58.097656 -77.863281 60.195312 -78.453125 62.65625 -78.453125 C 65.6875 -78.453125 67.789062 -77.835938 68.96875 -76.609375 C 70.144531 -75.378906 70.734375 -73.195312 70.734375 -70.0625 C 70.734375 -57.175781 71.515625 -40.429688 73.078125 -19.828125 C 79.796875 -29.796875 84.835938 -37.75 88.203125 -43.6875 C 86.523438 -46.925781 85.6875 -50.785156 85.6875 -55.265625 C 85.6875 -59.078125 86.523438 -62.773438 88.203125 -66.359375 C 89.878906 -69.941406 92.171875 -72.851562 95.078125 -75.09375 C 97.992188 -77.332031 101.300781 -78.453125 105 -78.453125 C 108.25 -78.453125 110.878906 -77.300781 112.890625 -75 C 114.910156 -72.707031 115.921875 -69.378906 115.921875 -65.015625 C 115.921875 -59.972656 114.578125 -54.207031 111.890625 -47.71875 C 116.140625 -47.9375 121.796875 -48.773438 128.859375 -50.234375 Z M 133.390625 -51.078125 "/></g></g></g></svg>